<svg width="472" height="472" viewBox="0 0 472 472" fill="none" xmlns="http://www.w3.org/2000/svg">
<path d="M0 3.92731C0 2.92409 0.383951 1.9589 1.07307 1.22981V1.22981C1.81487 0.444967 2.84714 0.000244141 3.92707 0.000244141H9.38787L71.1744 2.19391C73.8651 2.28944 75.997 4.49838 75.997 7.19076V216.884V382.153C75.997 382.153 75.329 386.959 72.8678 388.783C72.0654 389.377 70.7272 390.37 69.7236 391.114C68.862 391.753 67.8182 392.098 66.7454 392.098H40.2337H10.9306C10.2087 392.098 9.49541 391.944 8.85318 391.615C7.67045 391.008 5.69066 389.909 4.47041 388.783C2.87841 387.314 1.31594 384.635 0.527909 383.172C0.168926 382.506 0 381.76 0 381.003V309.226V223.987V81.4482V3.92731Z" fill="#F7FAFB"/>
<path d="M118.005 0C120.267 0 121.398 0.000131212 122.392 0.457031C123.386 0.913949 124.122 1.7724 125.594 3.48828L151.779 34.0059L176.029 63.1514C176.559 63.7884 176.824 64.1077 177.275 64.4512C177.726 64.7945 177.977 64.9076 178.478 65.1348C179.253 65.4858 180.215 65.8271 181.017 65.8223C183.3 65.8082 186.117 62.979 186.143 62.9521L197.621 50.0332L212.923 32.3311L235.171 4.12012C236.657 2.23607 237.401 1.29336 238.443 0.791992C239.485 0.290896 240.685 0.298194 243.084 0.3125L318.058 0.759766C318.149 0.759766 331.148 0.759788 334.312 0.759766C335.936 0.759804 335.723 1.45967 335.723 2.41211V211.736L334.911 233.544C334.889 234.129 334.878 234.422 334.834 234.711C334.789 235 334.71 235.282 334.553 235.847L332.875 241.894C332.676 242.61 332.576 242.968 332.425 243.307C332.275 243.645 332.075 243.958 331.676 244.585L329.99 247.237C329.56 247.913 329.345 248.251 329.081 248.549C328.816 248.847 328.506 249.101 327.886 249.608L325.145 251.853C324.508 252.374 324.19 252.634 323.835 252.839C323.48 253.043 323.094 253.188 322.324 253.478L317.031 255.463C316.624 255.615 316.42 255.692 316.212 255.75C316.003 255.808 315.789 255.849 315.362 255.929L308.566 257.204L302.715 258.458C302.294 258.548 302.082 258.593 301.869 258.62C301.655 258.647 301.439 258.656 301.007 258.673L255.554 260.438C254.095 260.495 253.365 260.524 252.682 260.754C252 260.984 251.402 261.403 250.206 262.24L239.35 269.843C238.81 270.221 238.54 270.411 238.297 270.633C238.055 270.855 237.844 271.108 237.42 271.613L223.444 288.303L213.401 302.657C213.346 302.741 205.83 314.131 197.254 314.131C190.458 314.131 157.19 269.813 157.18 269.8L138.924 245.966L85.0474 177.801L80.9498 171.801C80.7047 171.442 80.5816 171.262 80.4752 171.073C80.3687 170.884 80.2787 170.685 80.0992 170.289L6.71444 8.38184C6.26729 7.39529 6.04375 6.90164 5.93612 6.49023C5.28132 3.98702 6.64439 1.39744 9.07869 0.520508C9.4788 0.376381 10.0122 0.281531 11.0787 0.0917969C11.1596 0.0774108 11.2003 0.069997 11.2408 0.0634766C11.4765 0.0255424 11.715 0.00489475 11.9537 0.000976562C11.9946 0.000309077 12.0358 0 12.1178 0H118.005ZM165.295 81.9883C162.533 81.9883 160.295 84.2269 160.295 86.9883V132.519H118.097C115.336 132.519 113.097 134.757 113.097 137.519V178.046C113.097 180.807 115.336 183.046 118.097 183.046H160.295V228.571C160.295 231.333 162.533 233.571 165.295 233.571H202.494C205.255 233.571 207.494 231.333 207.494 228.571V183.046H249.693C252.454 183.046 254.693 180.807 254.693 178.046V137.519C254.693 134.757 252.454 132.519 249.693 132.519H207.494V86.9883C207.494 84.2269 205.255 81.9884 202.494 81.9883H165.295Z" fill="#F7FAFB"/>
<path d="M341.785 392.098C317.33 392.098 294.77 387.325 274.104 377.78C253.783 367.867 237.078 353.916 223.989 335.926L270.487 276.451C280.476 290.402 290.981 301.049 302.003 308.392C313.025 315.367 324.908 318.855 337.651 318.855C371.75 318.855 388.799 297.561 388.799 254.974V71.5911H356.873V0.000244141H471.98V250.017C471.98 297.745 460.958 333.357 438.914 356.853C416.871 380.349 384.494 392.098 341.785 392.098Z" fill="white"/>
<path d="M0.0185547 457.658V407.957H9.86536L31.7635 443.031H26.5462L48.0769 407.957H57.8502L57.9972 457.658H46.8276L46.7542 424.5H48.8117L31.6165 452.404H26.2522L8.68963 424.5H11.1881V457.658H0.0185547Z" fill="white"/>
<path d="M89.013 458.226C84.506 458.226 80.5379 457.374 77.1087 455.67C73.7284 453.966 71.1075 451.646 69.2459 448.712C67.3843 445.73 66.4535 442.345 66.4535 438.558C66.4535 434.724 67.3598 431.34 69.1724 428.405C71.034 425.423 73.5569 423.104 76.7412 421.447C79.9255 419.743 83.5262 418.891 87.5433 418.891C91.4135 418.891 94.8917 419.696 97.978 421.305C101.113 422.867 103.587 425.139 105.4 428.121C107.212 431.056 108.119 434.582 108.119 438.7C108.119 439.126 108.094 439.623 108.045 440.191C107.996 440.712 107.947 441.209 107.898 441.682H75.7859V435.221H101.873L97.4636 437.138C97.4636 435.15 97.0472 433.423 96.2144 431.955C95.3816 430.488 94.2303 429.352 92.7607 428.547C91.291 427.695 89.5764 427.269 87.6168 427.269C85.6572 427.269 83.9181 427.695 82.3995 428.547C80.9298 429.352 79.7786 430.512 78.9457 432.026C78.1129 433.494 77.6965 435.245 77.6965 437.28V438.984C77.6965 441.067 78.1619 442.913 79.0927 444.523C80.0725 446.085 81.4197 447.292 83.1343 448.144C84.8979 448.948 86.9555 449.351 89.3069 449.351C91.4135 449.351 93.2506 449.043 94.8182 448.428C96.4349 447.812 97.9045 446.889 99.2272 445.659L105.326 452.049C103.514 454.037 101.236 455.575 98.4924 456.664C95.749 457.705 92.5892 458.226 89.013 458.226Z" fill="white"/>
<path d="M132.725 458.226C129.002 458.226 125.647 457.421 122.658 455.812C119.67 454.155 117.294 451.859 115.53 448.925C113.816 445.99 112.958 442.534 112.958 438.558C112.958 434.535 113.816 431.056 115.53 428.121C117.294 425.187 119.67 422.914 122.658 421.305C125.647 419.696 129.002 418.891 132.725 418.891C136.057 418.891 138.972 419.601 141.47 421.021C143.968 422.441 145.904 424.595 147.275 427.482C148.647 430.37 149.333 434.062 149.333 438.558C149.333 443.008 148.671 446.7 147.349 449.635C146.026 452.522 144.115 454.676 141.617 456.096C139.168 457.516 136.204 458.226 132.725 458.226ZM134.709 449.138C136.571 449.138 138.261 448.712 139.78 447.86C141.299 447.008 142.499 445.801 143.381 444.238C144.311 442.629 144.777 440.736 144.777 438.558C144.777 436.334 144.311 434.44 143.381 432.878C142.499 431.316 141.299 430.109 139.78 429.257C138.261 428.405 136.571 427.979 134.709 427.979C132.799 427.979 131.084 428.405 129.566 429.257C128.047 430.109 126.822 431.316 125.891 432.878C125.01 434.44 124.569 436.334 124.569 438.558C124.569 440.736 125.01 442.629 125.891 444.238C126.822 445.801 128.047 447.008 129.566 447.86C131.084 448.712 132.799 449.138 134.709 449.138ZM145.071 457.658V449.848L145.291 438.487L144.556 427.198V404.975H156.02V457.658H145.071Z" fill="white"/>
<path d="M163.69 472C161.927 472 160.236 471.811 158.62 471.432C157.003 471.101 155.631 470.58 154.505 469.87L157.591 461.847C158.914 462.746 160.53 463.196 162.441 463.196C163.862 463.196 164.988 462.722 165.821 461.776C166.703 460.876 167.144 459.504 167.144 457.658V419.459H178.607V457.587C178.607 461.989 177.309 465.492 174.713 468.095C172.116 470.698 168.442 472 163.69 472ZM172.876 414.134C170.769 414.134 169.055 413.542 167.732 412.359C166.409 411.176 165.748 409.708 165.748 407.957C165.748 406.206 166.409 404.738 167.732 403.555C169.055 402.371 170.769 401.78 172.876 401.78C174.982 401.78 176.697 402.348 178.02 403.484C179.342 404.573 180.004 405.993 180.004 407.744C180.004 409.59 179.342 411.128 178.02 412.359C176.746 413.542 175.031 414.134 172.876 414.134Z" fill="white"/>
<path d="M207.974 458.226C203.761 458.226 200.014 457.374 196.731 455.67C193.498 453.966 190.926 451.646 189.016 448.712C187.154 445.73 186.223 442.345 186.223 438.558C186.223 434.724 187.154 431.34 189.016 428.405C190.926 425.423 193.498 423.104 196.731 421.447C200.014 419.743 203.761 418.891 207.974 418.891C212.139 418.891 215.862 419.743 219.144 421.447C222.426 423.104 224.998 425.4 226.86 428.334C228.721 431.269 229.652 434.677 229.652 438.558C229.652 442.345 228.721 445.73 226.86 448.712C224.998 451.646 222.426 453.966 219.144 455.67C215.862 457.374 212.139 458.226 207.974 458.226ZM207.974 449.138C209.885 449.138 211.6 448.712 213.118 447.86C214.637 447.008 215.837 445.801 216.719 444.238C217.601 442.629 218.042 440.736 218.042 438.558C218.042 436.334 217.601 434.44 216.719 432.878C215.837 431.316 214.637 430.109 213.118 429.257C211.6 428.405 209.885 427.979 207.974 427.979C206.064 427.979 204.349 428.405 202.831 429.257C201.312 430.109 200.087 431.316 199.156 432.878C198.275 434.44 197.834 436.334 197.834 438.558C197.834 440.736 198.275 442.629 199.156 444.238C200.087 445.801 201.312 447.008 202.831 447.86C204.349 448.712 206.064 449.138 207.974 449.138Z" fill="white"/>
<path d="M260.682 458.226C257.204 458.226 254.216 457.516 251.717 456.096C249.219 454.676 247.308 452.522 245.986 449.635C244.663 446.7 244.002 443.008 244.002 438.558C244.002 434.062 244.687 430.37 246.059 427.482C247.48 424.595 249.439 422.441 251.938 421.021C254.436 419.601 257.351 418.891 260.682 418.891C264.405 418.891 267.737 419.696 270.676 421.305C273.664 422.914 276.016 425.187 277.731 428.121C279.494 431.056 280.376 434.535 280.376 438.558C280.376 442.534 279.494 445.99 277.731 448.925C276.016 451.859 273.664 454.155 270.676 455.812C267.737 457.421 264.405 458.226 260.682 458.226ZM237.314 457.658V404.975H248.778V427.198L248.043 438.487L248.264 449.848V457.658H237.314ZM258.698 449.138C260.609 449.138 262.299 448.712 263.769 447.86C265.287 447.008 266.488 445.801 267.369 444.238C268.3 442.629 268.766 440.736 268.766 438.558C268.766 436.334 268.3 434.44 267.369 432.878C266.488 431.316 265.287 430.109 263.769 429.257C262.299 428.405 260.609 427.979 258.698 427.979C256.788 427.979 255.073 428.405 253.554 429.257C252.036 430.109 250.835 431.316 249.954 432.878C249.072 434.44 248.631 436.334 248.631 438.558C248.631 440.736 249.072 442.629 249.954 444.238C250.835 445.801 252.036 447.008 253.554 447.86C255.073 448.712 256.788 449.138 258.698 449.138Z" fill="white"/>
<path d="M301.35 458.226C297.97 458.226 294.712 457.847 291.577 457.09C288.491 456.285 286.041 455.291 284.229 454.108L288.05 446.156C289.862 447.244 291.993 448.144 294.443 448.854C296.941 449.516 299.391 449.848 301.791 449.848C304.437 449.848 306.298 449.54 307.376 448.925C308.503 448.309 309.066 447.457 309.066 446.369C309.066 445.469 308.625 444.807 307.743 444.381C306.911 443.907 305.784 443.552 304.363 443.315C302.942 443.079 301.375 442.842 299.66 442.605C297.995 442.369 296.304 442.061 294.59 441.682C292.875 441.256 291.308 440.641 289.887 439.836C288.466 439.032 287.315 437.943 286.433 436.57C285.6 435.198 285.184 433.423 285.184 431.245C285.184 428.831 285.894 426.701 287.315 424.855C288.785 423.009 290.891 421.565 293.635 420.524C296.378 419.435 299.66 418.891 303.481 418.891C306.176 418.891 308.919 419.175 311.712 419.743C314.504 420.311 316.831 421.139 318.692 422.228L314.871 430.109C312.961 429.021 311.026 428.287 309.066 427.908C307.156 427.482 305.294 427.269 303.481 427.269C300.934 427.269 299.072 427.601 297.897 428.263C296.721 428.926 296.133 429.778 296.133 430.819C296.133 431.766 296.549 432.476 297.382 432.949C298.264 433.423 299.415 433.801 300.836 434.085C302.257 434.369 303.8 434.63 305.465 434.866C307.18 435.056 308.895 435.363 310.609 435.789C312.324 436.215 313.867 436.831 315.239 437.635C316.659 438.393 317.811 439.458 318.692 440.83C319.574 442.156 320.015 443.907 320.015 446.085C320.015 448.451 319.28 450.558 317.811 452.404C316.341 454.202 314.21 455.622 311.418 456.664C308.674 457.705 305.318 458.226 301.35 458.226Z" fill="white"/>
<path d="M345.033 457.658V450.203L364.874 432.097C366.441 430.725 367.592 429.494 368.327 428.405C369.062 427.317 369.552 426.323 369.797 425.423C370.091 424.524 370.238 423.695 370.238 422.938C370.238 420.95 369.527 419.435 368.107 418.394C366.735 417.305 364.702 416.761 362.008 416.761C359.852 416.761 357.844 417.163 355.982 417.968C354.169 418.773 352.626 420.027 351.353 421.731L342.681 416.335C344.641 413.495 347.384 411.247 350.912 409.59C354.439 407.933 358.505 407.105 363.11 407.105C366.931 407.105 370.262 407.72 373.104 408.951C375.994 410.134 378.223 411.815 379.791 413.992C381.407 416.169 382.216 418.773 382.216 421.802C382.216 423.411 381.995 425.021 381.554 426.63C381.162 428.192 380.33 429.849 379.056 431.6C377.831 433.352 376.019 435.316 373.618 437.493L357.158 452.475L354.88 448.286H383.906V457.658H345.033Z" fill="white"/>
<path d="M405.498 458.51C401.922 458.51 398.371 458.06 394.843 457.161C391.316 456.214 388.328 454.889 385.878 453.185L390.508 444.381C392.467 445.753 394.745 446.842 397.342 447.647C399.938 448.451 402.559 448.854 405.205 448.854C408.193 448.854 410.544 448.286 412.259 447.15C413.974 446.014 414.831 444.452 414.831 442.463C414.831 440.57 414.072 439.079 412.553 437.99C411.034 436.902 408.585 436.357 405.205 436.357H399.767V428.76L414.096 413.069L415.419 417.187H388.45V407.957H424.457V415.412L410.201 431.103L404.176 427.766H407.63C413.949 427.766 418.726 429.139 421.959 431.884C425.192 434.63 426.809 438.156 426.809 442.463C426.809 445.256 426.049 447.883 424.531 450.345C423.012 452.759 420.685 454.723 417.55 456.238C414.414 457.752 410.397 458.51 405.498 458.51Z" fill="white"/>
<path d="M439.961 457.658L460.684 412.359L463.77 417.329H436.067L441.357 411.933V425.423H430.776V407.957H472V415.412L452.894 457.658H439.961Z" fill="white"/>
</svg>
