<svg width="200" height="200" viewBox="0 0 200 200" fill="none" xmlns="http://www.w3.org/2000/svg">
<path d="M0 1.66401C0 1.23891 0.162691 0.82994 0.454689 0.521001V0.521001C0.769013 0.188442 1.20642 0 1.66401 0H3.97791L27.3795 0.830848C30.0702 0.926378 32.2021 3.13532 32.2021 5.8277V91.8998V161.929C32.2021 161.929 31.9191 163.966 30.8762 164.738C30.7222 164.852 30.5217 165.001 30.3089 165.159C29.4472 165.798 28.4028 166.143 27.33 166.143H17.0482H5.26297C4.54111 166.143 3.82295 165.995 3.19561 165.638C2.75194 165.386 2.24783 165.065 1.89424 164.738C1.39715 164.28 0.90685 163.543 0.549648 162.939C0.164444 162.287 0 161.536 0 160.779V131.028V94.9097V34.5118V1.66401Z" fill="#0FA578"/>
<path d="M47.3528 0C49.6143 0 50.7455 0.000130626 51.7395 0.457031C52.7336 0.913937 53.4701 1.77204 54.9427 3.48828L64.3128 14.4092L73.9964 26.0469C74.4988 26.6507 74.7498 26.9528 75.5755 27.4082C76.3997 27.8628 76.4362 27.8687 76.5061 27.8779C76.573 27.8867 76.6393 27.891 76.7024 27.8906C77.6727 27.8843 78.8701 26.679 78.8743 26.6748L83.7376 21.2002L90.221 13.6992L97.9056 3.95605C99.3912 2.07229 100.134 1.13023 101.176 0.628906C102.218 0.127671 103.418 0.135107 105.817 0.149414L134.77 0.321289C134.77 0.321289 140.312 0.321299 141.658 0.321289C142.345 0.321353 142.255 0.618907 142.255 1.02246V89.7188L141.936 98.2832C141.914 98.8688 141.904 99.1623 141.859 99.4512C141.814 99.7399 141.735 100.023 141.578 100.587L141.22 101.88C141.079 102.387 141.008 102.64 140.912 102.884C140.86 103.018 140.801 103.15 140.737 103.278C140.62 103.513 140.479 103.735 140.197 104.179C139.892 104.657 139.74 104.896 139.563 105.115C139.466 105.236 139.363 105.352 139.255 105.463C139.058 105.665 138.838 105.845 138.4 106.204L138.362 106.235C137.872 106.636 137.627 106.837 137.36 107.005C137.253 107.071 137.144 107.134 137.033 107.192C136.755 107.339 136.458 107.45 135.865 107.673L134.804 108.071C134.397 108.224 134.194 108.3 133.985 108.358C133.776 108.417 133.562 108.457 133.135 108.537L130.747 108.984L128.756 109.412C128.334 109.503 128.122 109.547 127.908 109.574C127.695 109.601 127.479 109.609 127.048 109.626L109.979 110.289C108.52 110.346 107.79 110.375 107.108 110.604C106.425 110.834 105.826 111.253 104.63 112.091L102.043 113.903C101.503 114.282 101.233 114.471 100.991 114.693C100.748 114.916 100.536 115.168 100.113 115.674L94.679 122.162L90.4241 128.244C90.4241 128.244 87.2296 133.106 83.5823 133.106C80.7101 133.106 66.6803 114.427 66.6018 114.322L58.8655 104.223L36.0364 75.3389L34.5833 73.2109C34.3381 72.8519 34.2151 72.6726 34.1087 72.4834C34.0022 72.2941 33.9122 72.0953 33.7327 71.6992L2.84501 3.55176C2.16802 2.05814 3.07922 0.326527 4.69364 0.0390625C4.8389 0.0132191 4.98652 1.27856e-05 5.13407 0H47.3528ZM72.9212 34.7412C70.1598 34.7412 67.9212 36.9798 67.9212 39.7412V56.1514H52.9222C50.1609 56.1514 47.9224 58.3901 47.9222 61.1514V72.5615C47.9222 75.3229 50.1607 77.5615 52.9222 77.5615H67.9212V93.9707C67.9212 96.7321 70.1598 98.9707 72.9212 98.9707H82.9202C85.6816 98.9707 87.9202 96.7321 87.9202 93.9707V77.5615H102.92C105.682 77.5615 107.92 75.3229 107.92 72.5615V61.1514C107.92 58.3901 105.681 56.1514 102.92 56.1514H87.9202V39.7412C87.9202 36.9798 85.6816 34.7412 82.9202 34.7412H72.9212Z" fill="#0FA578"/>
<path d="M144.824 166.143C134.462 166.143 124.902 164.121 116.146 160.076C107.535 155.876 100.457 149.964 94.9106 142.342L114.613 117.14C118.846 123.052 123.297 127.563 127.967 130.674C132.638 133.63 137.673 135.108 143.073 135.108C157.521 135.108 164.745 126.085 164.745 108.04V30.3351H151.217V0H199.991V105.94C199.991 126.163 195.321 141.253 185.981 151.209C176.64 161.165 162.921 166.143 144.824 166.143Z" fill="#145FA7"/>
<path d="M0.0078125 193.923V172.863H4.18019L13.4591 187.725H11.2483L20.3715 172.863H24.5127L24.575 193.923H19.8422L19.811 179.873H20.6829L13.3968 191.696H11.1238L3.682 179.873H4.74066V193.923H0.0078125Z" fill="#145FA7"/>
<path d="M37.7173 194.163C35.8076 194.163 34.1262 193.802 32.6731 193.08C31.2408 192.358 30.1302 191.375 29.3414 190.132C28.5526 188.868 28.1582 187.434 28.1582 185.83C28.1582 184.205 28.5422 182.771 29.3103 181.528C30.0991 180.264 31.1681 179.281 32.5174 178.579C33.8667 177.857 35.3924 177.496 37.0946 177.496C38.7345 177.496 40.2083 177.837 41.5161 178.519C42.8446 179.181 43.8929 180.144 44.6609 181.407C45.429 182.651 45.813 184.145 45.813 185.89C45.813 186.07 45.8026 186.281 45.7818 186.522C45.7611 186.742 45.7403 186.953 45.7196 187.154H32.1126V184.416H43.1663L41.2981 185.228C41.2981 184.386 41.1217 183.654 40.7688 183.032C40.4159 182.41 39.9281 181.929 39.3053 181.588C38.6826 181.227 37.956 181.046 37.1257 181.046C36.2954 181.046 35.5585 181.227 34.915 181.588C34.2922 181.929 33.8044 182.42 33.4515 183.062C33.0986 183.684 32.9222 184.426 32.9222 185.288V186.01C32.9222 186.893 33.1194 187.675 33.5138 188.357C33.929 189.019 34.4998 189.53 35.2264 189.891C35.9736 190.232 36.8455 190.403 37.8419 190.403C38.7345 190.403 39.5129 190.272 40.1772 190.012C40.8622 189.751 41.4849 189.36 42.0454 188.838L44.6298 191.546C43.8617 192.388 42.8965 193.04 41.734 193.502C40.5716 193.943 39.2327 194.163 37.7173 194.163Z" fill="#145FA7"/>
<path d="M56.2395 194.163C54.6619 194.163 53.24 193.822 51.9738 193.14C50.7075 192.438 49.7007 191.466 48.9534 190.222C48.2269 188.979 47.8637 187.515 47.8637 185.83C47.8637 184.125 48.2269 182.651 48.9534 181.407C49.7007 180.164 50.7075 179.201 51.9738 178.519C53.24 177.837 54.6619 177.496 56.2395 177.496C57.6511 177.496 58.8862 177.797 59.9449 178.399C61.0035 179 61.8235 179.913 62.4047 181.136C62.9859 182.36 63.2765 183.924 63.2765 185.83C63.2765 187.715 62.9963 189.28 62.4358 190.523C61.8754 191.747 61.0658 192.659 60.0071 193.261C58.9692 193.863 57.7134 194.163 56.2395 194.163ZM57.0802 190.312C57.8691 190.312 58.5852 190.132 59.2287 189.771C59.8722 189.41 60.3808 188.898 60.7544 188.237C61.1488 187.555 61.346 186.752 61.346 185.83C61.346 184.887 61.1488 184.085 60.7544 183.423C60.3808 182.761 59.8722 182.25 59.2287 181.889C58.5852 181.528 57.8691 181.347 57.0802 181.347C56.2707 181.347 55.5441 181.528 54.9006 181.889C54.2571 182.25 53.7382 182.761 53.3438 183.423C52.9701 184.085 52.7833 184.887 52.7833 185.83C52.7833 186.752 52.9701 187.555 53.3438 188.237C53.7382 188.898 54.2571 189.41 54.9006 189.771C55.5441 190.132 56.2707 190.312 57.0802 190.312ZM61.4706 193.923V190.613L61.564 185.8L61.2526 181.016V171.599H66.11V193.923H61.4706Z" fill="#145FA7"/>
<path d="M69.3602 200C68.6129 200 67.8968 199.92 67.2117 199.759C66.5267 199.619 65.9455 199.398 65.4681 199.097L66.7758 195.698C67.3363 196.079 68.0213 196.269 68.8309 196.269C69.4329 196.269 69.9103 196.069 70.2632 195.668C70.6368 195.287 70.8236 194.705 70.8236 193.923V177.737H75.681V193.893C75.681 195.758 75.1309 197.242 74.0308 198.345C72.9306 199.448 71.3737 200 69.3602 200ZM73.2523 175.48C72.3597 175.48 71.6332 175.23 71.0727 174.728C70.5123 174.227 70.232 173.605 70.232 172.863C70.232 172.121 70.5123 171.499 71.0727 170.998C71.6332 170.496 72.3597 170.246 73.2523 170.246C74.1449 170.246 74.8715 170.486 75.4319 170.968C75.9924 171.429 76.2726 172.031 76.2726 172.773C76.2726 173.555 75.9924 174.207 75.4319 174.728C74.8922 175.23 74.1657 175.48 73.2523 175.48Z" fill="#145FA7"/>
<path d="M88.1247 194.163C86.3395 194.163 84.7515 193.802 83.3607 193.08C81.9907 192.358 80.9009 191.375 80.0913 190.132C79.3025 188.868 78.9081 187.434 78.9081 185.83C78.9081 184.205 79.3025 182.771 80.0913 181.528C80.9009 180.264 81.9907 179.281 83.3607 178.579C84.7515 177.857 86.3395 177.496 88.1247 177.496C89.8891 177.496 91.4668 177.857 92.8576 178.579C94.2483 179.281 95.3381 180.254 96.127 181.497C96.9158 182.741 97.3102 184.185 97.3102 185.83C97.3102 187.434 96.9158 188.868 96.127 190.132C95.3381 191.375 94.2483 192.358 92.8576 193.08C91.4668 193.802 89.8891 194.163 88.1247 194.163ZM88.1247 190.312C88.9343 190.312 89.6608 190.132 90.3043 189.771C90.9478 189.41 91.4564 188.898 91.83 188.237C92.2037 187.555 92.3905 186.752 92.3905 185.83C92.3905 184.887 92.2037 184.085 91.83 183.423C91.4564 182.761 90.9478 182.25 90.3043 181.889C89.6608 181.528 88.9343 181.347 88.1247 181.347C87.3151 181.347 86.5886 181.528 85.9451 181.889C85.3016 182.25 84.7827 182.761 84.3882 183.423C84.0146 184.085 83.8278 184.887 83.8278 185.83C83.8278 186.752 84.0146 187.555 84.3882 188.237C84.7827 188.898 85.3016 189.41 85.9451 189.771C86.5886 190.132 87.3151 190.312 88.1247 190.312Z" fill="#145FA7"/>
<path d="M110.459 194.163C108.985 194.163 107.718 193.863 106.66 193.261C105.601 192.659 104.792 191.747 104.231 190.523C103.671 189.28 103.39 187.715 103.39 185.83C103.39 183.924 103.681 182.36 104.262 181.136C104.864 179.913 105.695 179 106.753 178.399C107.812 177.797 109.047 177.496 110.459 177.496C112.036 177.496 113.448 177.837 114.693 178.519C115.959 179.201 116.956 180.164 117.682 181.407C118.43 182.651 118.803 184.125 118.803 185.83C118.803 187.515 118.43 188.979 117.682 190.222C116.956 191.466 115.959 192.438 114.693 193.14C113.448 193.822 112.036 194.163 110.459 194.163ZM100.557 193.923V171.599H105.414V181.016L105.103 185.8L105.196 190.613V193.923H100.557ZM109.618 190.312C110.427 190.312 111.144 190.132 111.766 189.771C112.41 189.41 112.918 188.898 113.292 188.237C113.686 187.555 113.884 186.752 113.884 185.83C113.884 184.887 113.686 184.085 113.292 183.423C112.918 182.761 112.41 182.25 111.766 181.889C111.144 181.528 110.427 181.347 109.618 181.347C108.808 181.347 108.082 181.528 107.438 181.889C106.795 182.25 106.286 182.761 105.913 183.423C105.539 184.085 105.352 184.887 105.352 185.83C105.352 186.752 105.539 187.555 105.913 188.237C106.286 188.898 106.795 189.41 107.438 189.771C108.082 190.132 108.808 190.312 109.618 190.312Z" fill="#145FA7"/>
<path d="M127.691 194.163C126.258 194.163 124.878 194.003 123.55 193.682C122.242 193.341 121.204 192.92 120.436 192.418L122.055 189.049C122.823 189.51 123.726 189.891 124.764 190.192C125.823 190.473 126.86 190.613 127.878 190.613C128.999 190.613 129.787 190.483 130.244 190.222C130.721 189.961 130.96 189.6 130.96 189.139C130.96 188.758 130.773 188.477 130.4 188.297C130.047 188.096 129.569 187.946 128.967 187.845C128.365 187.745 127.701 187.645 126.975 187.545C126.269 187.444 125.553 187.314 124.826 187.154C124.1 186.973 123.435 186.712 122.833 186.371C122.231 186.03 121.744 185.569 121.37 184.987C121.017 184.406 120.841 183.654 120.841 182.731C120.841 181.708 121.142 180.806 121.744 180.023C122.366 179.241 123.259 178.629 124.421 178.188C125.584 177.727 126.975 177.496 128.594 177.496C129.735 177.496 130.898 177.616 132.081 177.857C133.264 178.098 134.25 178.449 135.039 178.91L133.42 182.25C132.61 181.788 131.79 181.477 130.96 181.317C130.151 181.136 129.362 181.046 128.594 181.046C127.514 181.046 126.726 181.187 126.227 181.467C125.729 181.748 125.48 182.109 125.48 182.55C125.48 182.952 125.656 183.252 126.009 183.453C126.383 183.654 126.871 183.814 127.473 183.934C128.075 184.055 128.729 184.165 129.434 184.265C130.161 184.346 130.888 184.476 131.614 184.656C132.341 184.837 132.994 185.098 133.576 185.439C134.178 185.76 134.665 186.211 135.039 186.792C135.413 187.354 135.6 188.096 135.6 189.019C135.6 190.022 135.288 190.914 134.665 191.696C134.043 192.459 133.14 193.06 131.957 193.502C130.794 193.943 129.372 194.163 127.691 194.163Z" fill="#145FA7"/>
<path d="M146.2 193.923V190.764L154.607 183.092C155.272 182.51 155.759 181.989 156.071 181.528C156.382 181.066 156.59 180.645 156.694 180.264C156.818 179.883 156.88 179.532 156.88 179.211C156.88 178.369 156.579 177.727 155.977 177.286C155.396 176.824 154.535 176.594 153.393 176.594C152.48 176.594 151.629 176.764 150.84 177.105C150.072 177.446 149.418 177.978 148.878 178.7L145.204 176.413C146.034 175.21 147.197 174.257 148.691 173.555C150.186 172.853 151.909 172.502 153.86 172.502C155.479 172.502 156.891 172.763 158.095 173.284C159.319 173.786 160.264 174.498 160.928 175.42C161.613 176.343 161.956 177.446 161.956 178.73C161.956 179.412 161.862 180.094 161.676 180.775C161.509 181.437 161.157 182.139 160.617 182.881C160.098 183.624 159.33 184.456 158.313 185.378L151.338 191.726L150.373 189.951H162.672V193.923H146.2Z" fill="#145FA7"/>
<path d="M171.821 194.284C170.306 194.284 168.801 194.093 167.306 193.712C165.812 193.311 164.546 192.749 163.508 192.027L165.469 188.297C166.3 188.878 167.265 189.34 168.365 189.681C169.465 190.022 170.576 190.192 171.697 190.192C172.963 190.192 173.959 189.951 174.686 189.47C175.412 188.989 175.776 188.327 175.776 187.484C175.776 186.682 175.454 186.05 174.811 185.589C174.167 185.128 173.129 184.897 171.697 184.897H169.393V181.678L175.464 175.029L176.025 176.774H164.598V172.863H179.855V176.022L173.814 182.671L171.261 181.257H172.724C175.402 181.257 177.426 181.838 178.796 183.002C180.166 184.165 180.851 185.659 180.851 187.484C180.851 188.668 180.529 189.781 179.886 190.824C179.242 191.847 178.256 192.679 176.928 193.321C175.599 193.963 173.897 194.284 171.821 194.284Z" fill="#145FA7"/>
<path d="M186.424 193.923L195.205 174.728L196.513 176.834H184.774L187.016 174.548V180.264H182.532V172.863H200V176.022L191.904 193.923H186.424Z" fill="#145FA7"/>
</svg>
