<svg width="472" height="386" viewBox="0 0 472 386" fill="none" xmlns="http://www.w3.org/2000/svg">
<path d="M0 3.88793C0 2.88683 0.386159 1.92431 1.07807 1.2008V1.2008C1.81155 0.433817 2.82668 0 3.88793 0H9.35094L70.8735 2.15881C73.565 2.25325 75.6981 4.46255 75.6981 7.15573V213.511V376.21C75.6981 376.21 75.0327 380.941 72.5811 382.737C71.7815 383.322 70.4474 384.3 69.4476 385.033C68.59 385.661 67.5551 386 66.4919 386H40.0755H10.8802C10.1659 386 9.45987 385.85 8.82272 385.527C7.64515 384.93 5.66978 383.846 4.45283 382.737C2.87588 381.299 1.32801 378.683 0.538949 377.238C0.172483 376.566 0 375.812 0 375.048V304.417V220.504V80.1813V3.88793Z" fill="#F7FAFB"/>
<path d="M118.079 0C120.307 0 121.42 0.000567895 122.403 0.445312C123.386 0.890132 124.121 1.72668 125.592 3.40039L151.784 33.2168L176.024 61.6738C176.56 62.3025 176.827 62.6173 177.279 62.9541C177.73 63.2908 177.982 63.4023 178.486 63.625C179.26 63.9675 180.222 64.3007 181.023 64.2959C183.317 64.2817 186.149 61.4912 186.149 61.4912L197.627 48.873L212.929 31.5811L235.18 4.02246C236.666 2.18205 237.409 1.26138 238.44 0.772461C239.471 0.283579 240.654 0.29091 243.019 0.304688L318.068 0.742188C318.109 0.742188 331.153 0.74221 334.323 0.742188C335.947 0.742225 335.734 1.42607 335.734 2.35645V206.824L334.924 228.073C334.901 228.672 334.889 228.971 334.842 229.267C334.796 229.562 334.714 229.85 334.55 230.426L332.9 236.229C332.694 236.956 332.591 237.319 332.435 237.661C332.28 238.003 332.074 238.32 331.662 238.952L330.017 241.477C329.579 242.149 329.36 242.486 329.092 242.782C328.823 243.078 328.509 243.329 327.883 243.83L325.152 246.014C324.517 246.521 324.199 246.775 323.846 246.974C323.494 247.172 323.112 247.313 322.348 247.593L317.027 249.542C316.627 249.689 316.428 249.762 316.222 249.818C316.017 249.874 315.807 249.912 315.388 249.989L308.576 251.237L302.707 252.467C302.294 252.553 302.087 252.596 301.878 252.622C301.669 252.648 301.458 252.656 301.037 252.672L255.508 254.399C254.075 254.454 253.358 254.481 252.686 254.703C252.015 254.925 251.423 255.329 250.24 256.139L239.364 263.579C238.821 263.951 238.549 264.136 238.304 264.355C238.06 264.575 237.846 264.825 237.418 265.324L223.451 281.616L213.408 295.637C213.39 295.663 205.858 306.844 197.26 306.845C190.467 306.845 157.222 263.591 157.184 263.542L138.928 240.261L85.0485 173.677L80.9645 167.836C80.7125 167.476 80.5868 167.295 80.4772 167.104C80.3676 166.914 80.2748 166.714 80.0895 166.314L6.77998 8.33105C6.35306 7.41102 6.14007 6.95064 6.03193 6.56934C5.30747 4.01362 6.70758 1.33712 9.22041 0.475586C9.5954 0.347032 10.0958 0.260626 11.0954 0.0869141C11.1684 0.0742241 11.2053 0.0673262 11.2419 0.0615234C11.4761 0.0244095 11.7128 0.00450745 11.9499 0.000976562C11.987 0.000426221 12.0242 2.10051e-09 12.0983 0H118.079ZM165.301 80.0869C162.54 80.0871 160.301 82.3256 160.301 85.0869V129.442H118.102C115.341 129.442 113.102 131.681 113.102 134.442V173.799C113.102 176.56 115.341 178.799 118.102 178.799H160.301V223.154C160.301 225.916 162.54 228.154 165.301 228.154H202.502C205.263 228.154 207.502 225.916 207.502 223.154V178.799H249.702C252.463 178.799 254.702 176.56 254.702 173.799V134.442C254.702 131.681 252.463 129.442 249.702 129.442H207.502V85.0869C207.502 82.3255 205.263 80.0869 202.502 80.0869H165.301Z" fill="#F7FAFB"/>
<path d="M341.555 385.534C317.053 385.534 294.449 380.842 273.743 371.456C253.383 361.709 236.646 347.992 223.532 330.303L270.12 271.823C280.128 285.541 290.653 296.01 301.696 303.229C312.739 310.088 324.645 313.517 337.413 313.517C371.578 313.517 388.66 292.58 388.66 250.706V70.3925H356.672V0H472V245.832C472 292.761 460.957 327.776 438.871 350.88C416.785 373.983 384.346 385.534 341.555 385.534Z" fill="white"/>
</svg>
