<svg width="472" height="386" viewBox="0 0 472 386" fill="none" xmlns="http://www.w3.org/2000/svg">
<path d="M0 3.88805C0 2.88695 0.386159 1.92443 1.07807 1.20092V1.20092C1.81155 0.433939 2.82668 0.00012207 3.88793 0.00012207H9.35094L70.8735 2.15893C73.565 2.25338 75.6981 4.46268 75.6981 7.15586V213.511V376.21C75.6981 376.21 75.0327 380.941 72.5811 382.737C71.7815 383.322 70.4474 384.3 69.4476 385.033C68.59 385.662 67.5551 386 66.4919 386H40.0755H10.8802C10.1659 386 9.45987 385.85 8.82272 385.527C7.64515 384.93 5.66978 383.846 4.45283 382.737C2.87588 381.299 1.32801 378.683 0.538949 377.238C0.172483 376.567 0 375.813 0 375.048V304.417V220.504V80.1815V3.88805Z" fill="black"/>
<path d="M118.079 0C120.306 0 121.421 0.000483143 122.404 0.445312C123.386 0.890177 124.121 1.727 125.591 3.40039L151.784 33.2168L176.024 61.6738C176.559 62.3025 176.827 62.6172 177.279 62.9541C177.73 63.2908 177.982 63.4023 178.486 63.625C179.26 63.9675 180.221 64.3007 181.023 64.2959C183.317 64.2819 186.149 61.4912 186.149 61.4912L197.626 48.873L212.929 31.5811L235.18 4.02246C236.666 2.1821 237.409 1.26139 238.44 0.772461C239.471 0.283547 240.654 0.29091 243.019 0.304688L318.068 0.742188C318.068 0.742188 331.148 0.74221 334.323 0.742188C335.946 0.742188 335.734 1.42605 335.734 2.35645V206.824L334.923 228.073C334.901 228.672 334.889 228.971 334.842 229.267C334.795 229.562 334.714 229.85 334.55 230.426L332.901 236.229C332.694 236.956 332.591 237.319 332.435 237.661C332.279 238.003 332.073 238.32 331.662 238.952L330.017 241.477C329.579 242.149 329.36 242.486 329.091 242.782C328.823 243.078 328.509 243.329 327.882 243.83L325.152 246.014C324.517 246.521 324.199 246.775 323.846 246.974C323.493 247.172 323.112 247.313 322.348 247.593L317.028 249.542C316.628 249.689 316.427 249.762 316.222 249.818C316.017 249.874 315.808 249.913 315.389 249.989L308.576 251.237L302.707 252.467C302.294 252.553 302.087 252.596 301.878 252.622C301.669 252.648 301.458 252.656 301.037 252.672L255.507 254.399C254.075 254.454 253.358 254.481 252.687 254.703C252.015 254.925 251.423 255.329 250.24 256.139L239.364 263.579C238.821 263.951 238.548 264.136 238.304 264.355C238.06 264.575 237.846 264.825 237.417 265.324L223.451 281.616L213.408 295.637C213.377 295.682 205.851 306.845 197.26 306.845C190.475 306.845 157.305 263.698 157.185 263.542L138.928 240.261L85.0483 173.677L80.9644 167.836C80.7123 167.475 80.5866 167.295 80.4771 167.104C80.3674 166.914 80.2746 166.714 80.0894 166.314L6.78076 8.33105C6.35377 7.41087 6.13988 6.95068 6.03174 6.56934C5.30729 4.01365 6.70744 1.33715 9.22021 0.475586C9.59522 0.347015 10.0955 0.26064 11.0952 0.0869141C11.1684 0.0742025 11.2051 0.0673311 11.2417 0.0615234C11.4759 0.0244007 11.7126 0.00451655 11.9497 0.000976562C11.9868 0.000425143 12.0247 0 12.0991 0H118.079ZM165.302 80.0869C162.541 80.0869 160.302 82.3255 160.302 85.0869V129.442H118.102C115.341 129.442 113.102 131.681 113.102 134.442V173.799C113.102 176.56 115.341 178.799 118.102 178.799H160.302V223.154C160.302 225.916 162.541 228.154 165.302 228.154H202.501C205.263 228.154 207.501 225.916 207.501 223.154V178.799H249.702C252.463 178.799 254.701 176.56 254.702 173.799V134.442C254.702 131.681 252.463 129.442 249.702 129.442H207.501V85.0869C207.501 82.3255 205.263 80.0869 202.501 80.0869H165.302Z" fill="black"/>
<path d="M341.555 385.534C317.053 385.534 294.449 380.842 273.743 371.456C253.383 361.709 236.646 347.992 223.532 330.303L270.12 271.823C280.128 285.541 290.653 296.01 301.696 303.229C312.739 310.088 324.645 313.517 337.413 313.517C371.578 313.517 388.66 292.58 388.66 250.706V70.3925H356.672V0H472V245.832C472 292.761 460.957 327.776 438.871 350.88C416.785 373.983 384.346 385.534 341.555 385.534Z" fill="black"/>
</svg>
